<svg width="34" height="33" viewBox="0 0 34 33" fill="none" xmlns="http://www.w3.org/2000/svg">
<path d="M31.7304 0.694336H2.27131C1.56285 0.694336 0.990481 1.26671 0.990481 1.97517V31.4343C0.990481 32.1427 1.56285 32.7151 2.27131 32.7151H31.7304C32.4389 32.7151 33.0113 32.1427 33.0113 31.4343V1.97517C33.0113 1.26671 32.4389 0.694336 31.7304 0.694336ZM28.032 10.0404H25.4744C23.4691 10.0404 23.0808 10.993 23.0808 12.3939V15.4799H27.8679L27.2435 20.3111H23.0808V32.7151H18.0896V20.3151H13.9149V15.4799H18.0896V11.9176C18.0896 7.78293 20.6152 5.52947 24.3056 5.52947C26.0748 5.52947 27.5917 5.66156 28.036 5.7216V10.0404H28.032Z" fill="white"/>
</svg>
