<svg width="34" height="33" viewBox="0 0 34 33" fill="none" xmlns="http://www.w3.org/2000/svg">
<path d="M31.7304 0.522949H2.27131C1.56285 0.522949 0.990481 1.09532 0.990481 1.80378V31.2629C0.990481 31.9714 1.56285 32.5437 2.27131 32.5437H31.7304C32.4389 32.5437 33.0113 31.9714 33.0113 31.2629V1.80378C33.0113 1.09532 32.4389 0.522949 31.7304 0.522949ZM28.032 9.86901H25.4744C23.4691 9.86901 23.0808 10.8216 23.0808 12.2225V15.3085H27.8679L27.2435 20.1397H23.0808V32.5437H18.0896V20.1437H13.9149V15.3085H18.0896V11.7462C18.0896 7.61155 20.6152 5.35809 24.3056 5.35809C26.0748 5.35809 27.5917 5.49017 28.036 5.55021V9.86901H28.032Z" fill="#2091F9"/>
</svg>
