<svg width="33" height="33" viewBox="0 0 33 33" fill="none" xmlns="http://www.w3.org/2000/svg">
<path d="M31.7182 0.522949H2.25909C1.55064 0.522949 0.978264 1.09532 0.978264 1.80378V31.2629C0.978264 31.9714 1.55064 32.5437 2.25909 32.5437H31.7182C32.4267 32.5437 32.999 31.9714 32.999 31.2629V1.80378C32.999 1.09532 32.4267 0.522949 31.7182 0.522949ZM10.4764 27.8087H5.72534V12.5267H10.4764V27.8087ZM8.10289 10.4374C7.55824 10.4374 7.02582 10.2759 6.57296 9.97329C6.12011 9.6707 5.76715 9.24061 5.55872 8.73742C5.35029 8.23423 5.29576 7.68054 5.40201 7.14636C5.50827 6.61218 5.77054 6.1215 6.15567 5.73637C6.54079 5.35125 7.03147 5.08898 7.56565 4.98272C8.09983 4.87647 8.65353 4.931 9.15672 5.13943C9.6599 5.34786 10.09 5.70082 10.3926 6.15367C10.6952 6.60653 10.8567 7.13895 10.8567 7.6836C10.8527 9.20458 9.61987 10.4374 8.10289 10.4374ZM28.264 27.8087H23.5169V20.3758C23.5169 18.6027 23.4849 16.3252 21.0473 16.3252C18.5777 16.3252 18.1974 18.2545 18.1974 20.2477V27.8087H13.4544V12.5267H18.0093V14.6161H18.0734C18.7058 13.4153 20.2548 12.1465 22.5683 12.1465C27.3794 12.1465 28.264 15.3125 28.264 19.4272V27.8087Z" fill="#2091F9"/>
</svg>
