<svg width="33" height="33" viewBox="0 0 33 33" fill="none" xmlns="http://www.w3.org/2000/svg">
<path d="M31.7182 0.694336H2.25909C1.55064 0.694336 0.978264 1.26671 0.978264 1.97517V31.4343C0.978264 32.1427 1.55064 32.7151 2.25909 32.7151H31.7182C32.4267 32.7151 32.999 32.1427 32.999 31.4343V1.97517C32.999 1.26671 32.4267 0.694336 31.7182 0.694336ZM10.4764 27.98H5.72534V12.6981H10.4764V27.98ZM8.10289 10.6088C7.55824 10.6088 7.02582 10.4473 6.57296 10.1447C6.12011 9.84208 5.76715 9.412 5.55872 8.90881C5.35029 8.40562 5.29576 7.85193 5.40201 7.31775C5.50827 6.78356 5.77054 6.29288 6.15567 5.90776C6.54079 5.52264 7.03147 5.26036 7.56565 5.15411C8.09983 5.04785 8.65353 5.10239 9.15672 5.31081C9.6599 5.51924 10.09 5.8722 10.3926 6.32506C10.6952 6.77792 10.8567 7.31033 10.8567 7.85498C10.8527 9.37597 9.61987 10.6088 8.10289 10.6088ZM28.264 27.98H23.5169V20.5472C23.5169 18.7741 23.4849 16.4966 21.0473 16.4966C18.5777 16.4966 18.1974 18.4258 18.1974 20.4191V27.98H13.4544V12.6981H18.0093V14.7875H18.0734C18.7058 13.5867 20.2548 12.3179 22.5683 12.3179C27.3794 12.3179 28.264 15.4839 28.264 19.5986V27.98Z" fill="white"/>
</svg>
