<svg width="60" height="62" viewBox="0 0 60 62" fill="none" xmlns="http://www.w3.org/2000/svg">
<g clip-path="url(#clip0)">
<path opacity="0.5" d="M29.928 9.25008V26.4954L44.8921 17.8549V0.609375L29.928 9.25008Z" fill="#13A049"/>
<path opacity="0.5" d="M29.928 9.25008L14.9641 0.609375V17.8908L29.928 26.5315V9.25008Z" fill="#A2CC39"/>
<path opacity="0.9" d="M44.8922 0.609375L29.928 9.25008L14.9641 0.609375L3.8147e-06 9.25008L29.928 26.5315L59.8383 9.25008L44.8922 0.609375Z" fill="url(#paint0_linear)"/>
<path d="M29.928 26.5314L3.8147e-06 9.25V26.5314L14.9641 35.1721V52.4357L29.928 61.0764L44.8922 52.4357V35.1721L59.8383 26.5314V9.25L29.928 26.5314Z" fill="url(#paint1_linear)"/>
<path d="M29.928 26.5314V61.0764L44.8921 52.4357V35.1721L59.8382 26.5314V9.25L29.928 26.5314Z" fill="url(#paint2_linear)"/>
<path opacity="0.05" d="M29.928 43.7952V61.0766L44.8921 52.4359L29.928 43.7952Z" fill="#231F20"/>
<path opacity="0.1" d="M29.928 61.1122V43.8308L14.9641 52.4715L29.928 61.1122Z" fill="#231F20"/>
<path opacity="0.05" d="M14.9641 17.8909L3.8147e-06 26.5316L14.9641 35.1723L29.928 26.5316L14.9641 17.8909Z" fill="#231F20"/>
<path opacity="0.05" d="M44.8921 17.8909L29.928 26.5316L44.8921 35.1723L59.8382 26.5316L44.8921 17.8909Z" fill="#231F20"/>
</g>
<defs>
<linearGradient id="paint0_linear" x1="59.8455" y1="13.5681" x2="3.8147e-06" y2="13.5681" gradientUnits="userSpaceOnUse">
<stop stop-color="#37BDA6"/>
<stop offset="1" stop-color="#8AD3B8"/>
</linearGradient>
<linearGradient id="paint1_linear" x1="59.8455" y1="35.1622" x2="3.8147e-06" y2="35.1622" gradientUnits="userSpaceOnUse">
<stop offset="0.5" stop-color="#4BB6AD"/>
<stop offset="1" stop-color="#78BBC1"/>
</linearGradient>
<linearGradient id="paint2_linear" x1="29.9226" y1="35.1622" x2="59.8451" y2="35.1622" gradientUnits="userSpaceOnUse">
<stop stop-color="#4379A7"/>
<stop offset="1" stop-color="#7CC9B8"/>
</linearGradient>
<clipPath id="clip0">
<rect width="60" height="60.7031" fill="white" transform="translate(3.8147e-06 0.609375)"/>
</clipPath>
</defs>
</svg>
