<svg width="150" height="61" viewBox="0 0 150 61" fill="none" xmlns="http://www.w3.org/2000/svg">
<g clip-path="url(#clip0)">
<path d="M0.129517 0.273438V4.37451H29.2983V0.273438H0.129517ZM33.431 0.273438V4.37451H74.9978C74.9978 4.37451 70.7519 0.273438 65.1285 0.273438H33.431ZM83.152 0.273438V4.37451H108.299L106.807 0.273438H83.152ZM126.329 0.273438L124.836 4.37451H149.755V0.273438H126.329ZM0.129517 8.24905V12.3501H29.2983V8.24905H0.129517ZM33.431 8.2549V12.3501H79.8212C79.8212 12.3501 79.2795 9.19383 78.3344 8.2549H33.431ZM83.152 8.2549V12.3501H111.056L109.675 8.2549H83.152ZM123.343 8.2549L121.962 12.3501H149.755V8.2549H123.343ZM8.51196 16.2247V20.331H21.1442V16.2247H8.51196ZM41.8134 16.2247V20.331H54.4456V16.2247H41.8134ZM66.7324 16.2247V20.331H79.3646C79.3646 20.331 80.1666 18.1622 80.1666 16.2244H66.7324V16.2247ZM91.5344 16.2247V20.331H113.93L112.438 16.2244H91.5344V16.2247ZM120.592 16.2247L119.093 20.3313H141.601V16.2247H120.592ZM8.51196 24.2061V28.3066H21.1442V24.2061H8.51196ZM41.8134 24.2061V28.3066H74.0788C74.0788 28.3066 76.7779 26.2022 77.6378 24.2055H41.8134V24.2061ZM91.5344 24.2061V28.3066H104.167V26.0237L104.969 28.3066H128.108L128.969 26.0237V28.3066H141.601V24.2061H117.888L116.629 27.68L115.365 24.2061H91.5344ZM8.51196 32.1811V36.2822H21.1442V32.1811H8.51196ZM41.8134 32.1811V36.2822H77.6378C76.7776 34.292 74.0788 32.1811 74.0788 32.1811H41.8134ZM91.5344 32.1811V36.2822H104.167V32.1811H91.5344ZM106.461 32.1811L107.989 36.2822H125.339L126.791 32.1811H106.461ZM128.969 32.1811V36.2822H141.601V32.1811H128.969ZM8.51196 40.1568V44.2578H21.1442V40.1568H8.51196ZM41.8134 40.1568V44.2578H54.4456V40.1568H41.8134ZM66.7324 40.1568V44.2578H80.1666C80.1666 42.3223 79.3646 40.1568 79.3646 40.1568H66.7324ZM91.5344 40.1568V44.2578H104.167V40.1568H91.5344ZM109.33 40.1568L110.81 44.2578H122.442L123.934 40.1568H109.33ZM128.969 40.1568V44.2578H141.601V40.1568H128.969ZM0.357809 48.1327V52.2393H29.5266V48.1324H0.357809V48.1327ZM33.431 48.1327V52.2393H78.3344C79.2795 51.2989 79.8212 48.1324 79.8212 48.1324H33.431V48.1327ZM83.3802 48.1327V52.2393H104.167V48.1324H83.3802V48.1327ZM112.204 48.1327L113.726 52.2393H119.644L121.072 48.1324H112.204V48.1327ZM128.969 48.1327V52.2393H149.983V48.1324H128.969V48.1327ZM0.357809 56.1138V60.2149H29.5266V56.1138H0.357809ZM33.431 56.1138V60.2088H65.1285C70.7519 60.2088 74.9978 56.1135 74.9978 56.1135H33.431V56.1138ZM83.3802 56.1138V60.2149H104.167V56.1138H83.3802ZM115.09 56.1138L116.553 60.2029L116.805 60.2088L118.291 56.1135H115.09V56.1138ZM128.969 56.1138V60.2149H149.983V56.1138H128.969Z" fill="#1F70C1"/>
</g>
<defs>
<clipPath id="clip0">
<rect width="149.854" height="60" fill="white" transform="translate(0.129517 0.273438)"/>
</clipPath>
</defs>
</svg>
