<svg width="60" height="61" viewBox="0 0 60 61" fill="none" xmlns="http://www.w3.org/2000/svg">
<g clip-path="url(#clip0)">
<path d="M13.14 0.609375H46.86C54.1172 0.609375 60 6.49219 60 13.7494V47.4694C60 54.7266 54.1172 60.6094 46.86 60.6094H13.14C5.88282 60.6094 3.8147e-06 54.7266 3.8147e-06 47.4694V13.7494C3.8147e-06 6.49219 5.88282 0.609375 13.14 0.609375Z" fill="url(#paint0_linear)"/>
<path d="M19.6688 44.215L19.6744 44.2169L17.6229 47.77C16.8741 49.067 15.2156 49.5114 13.9186 48.7626C12.6218 48.0137 12.1772 46.3553 12.926 45.0583L14.4373 42.4408L14.5823 42.1895C14.8413 41.8173 15.4805 41.1747 16.759 41.2956C16.759 41.2956 19.7677 41.6221 19.9854 43.1859C19.9854 43.1859 20.0149 43.7003 19.6688 44.215ZM48.7648 35.14H42.3678C41.932 35.1107 41.742 34.9551 41.667 34.8646L41.6623 34.8564L34.8145 22.9956L34.8056 23.0015L34.395 22.4127C33.7219 21.3834 32.6531 24.0159 32.6531 24.0159C31.377 26.9493 32.8343 30.2842 33.3422 31.2923L42.8536 47.7665C43.6022 49.0633 45.2606 49.5079 46.5579 48.7588C47.8547 48.01 48.2993 46.3516 47.5503 45.0545L45.1721 40.9352C45.1259 40.8353 45.0457 40.5644 45.5335 40.5632H48.7648C50.2624 40.5632 51.4765 39.3491 51.4765 37.8515C51.4765 36.3538 50.2624 35.1398 48.7648 35.1398V35.14ZM36.3396 38.8262C36.3396 38.8262 36.6811 40.5632 35.3599 40.5632H11.7117C10.2141 40.5632 9 39.3491 9 37.8515C9 36.3538 10.2141 35.1398 11.7117 35.1398H17.7914C18.773 35.083 19.0055 34.5163 19.0055 34.5163L19.0111 34.5191L26.947 20.7735L26.9447 20.773C27.0893 20.5075 26.9688 20.2565 26.948 20.2169L24.327 15.6773C23.5781 14.3805 24.0225 12.7218 25.3195 11.9732C26.6166 11.2244 28.275 11.6685 29.0238 12.9655L30.2393 15.0709L31.4527 12.9693C32.2015 11.6725 33.8599 11.2279 35.157 11.9769C36.454 12.7258 36.8984 14.384 36.1495 15.681L25.1063 34.8084C25.058 34.9248 25.0432 35.1077 25.4025 35.1398H32.0034L32.0049 35.2042C32.0049 35.2042 35.82 35.2635 36.3396 38.8262Z" fill="white"/>
</g>
<defs>
<linearGradient id="paint0_linear" x1="30" y1="0.609375" x2="30" y2="60.6094" gradientUnits="userSpaceOnUse">
<stop stop-color="#17C9FB"/>
<stop offset="1" stop-color="#1A74E8"/>
</linearGradient>
<clipPath id="clip0">
<rect width="60" height="60" fill="white" transform="translate(3.8147e-06 0.609375)"/>
</clipPath>
</defs>
</svg>
