<svg width="60" height="66" viewBox="0 0 60 66" fill="none" xmlns="http://www.w3.org/2000/svg">
<g clip-path="url(#clip0)">
<path d="M55.7905 53.1538C55.3382 56.5157 53.0757 59.4248 49.9084 60.7176C48.3568 61.3633 46.6764 61.5578 44.9954 61.3633C43.3797 61.1697 41.7634 60.6524 40.0829 59.6837C37.7556 58.3895 35.4285 56.3866 32.7137 53.4128C36.9803 48.1769 39.5652 43.3933 40.5353 39.1277C40.9879 37.1235 41.0523 35.3134 40.8587 33.6325C40.6004 32.0167 40.0185 30.5294 39.1131 29.2368C37.1092 26.3282 33.7482 24.6473 29.9989 24.6473C26.2497 24.6473 22.8885 26.3929 20.8846 29.2368C19.9792 30.5296 19.3982 32.0167 19.1392 33.6325C18.8809 35.3134 18.9454 37.188 19.4626 39.1279C20.432 43.393 23.0821 48.2416 27.2842 53.4766C24.6339 56.451 22.2421 58.4547 19.9147 59.7477C18.2343 60.7176 16.618 61.2348 15.0022 61.428C13.3365 61.614 11.6506 61.3924 10.0895 60.7823C6.92192 59.4895 4.65997 56.5794 4.20715 53.2183C4.01356 51.6027 4.1427 49.9869 4.78911 48.1769C4.9827 47.53 5.30637 46.8848 5.62911 46.1085C6.08192 45.0747 6.59918 43.975 7.11575 42.8758L7.1809 42.7473C11.6406 33.1152 16.4244 23.29 21.4018 13.7235L21.5957 13.3349C22.1129 12.3662 22.6295 11.3324 23.1472 10.3623C23.664 9.32781 24.2457 8.35797 24.9566 7.51703C26.3141 5.96547 28.1242 5.12523 30.1281 5.12523C32.132 5.12523 33.9418 5.96547 35.2993 7.51727C36.0104 8.35797 36.5922 9.32781 37.1094 10.3626C37.6267 11.3324 38.1432 12.3662 38.6605 13.3349L38.855 13.7235C43.7673 23.3545 48.5511 33.1797 53.0113 42.8118V42.8758C53.5286 43.9103 53.9807 45.0747 54.4979 46.1085C54.8214 46.8848 55.1443 47.5298 55.3379 48.1769C55.8552 49.8573 56.049 51.4741 55.7907 53.1538H55.7905ZM29.9989 50.1154C26.5086 45.7204 24.2457 41.583 23.4702 38.0934C23.1475 36.6063 23.0821 35.3134 23.2766 34.1498C23.4055 33.1152 23.7939 32.2098 24.3102 31.4336C25.5386 29.6898 27.6069 28.589 29.9989 28.589C32.3907 28.589 34.5238 29.6242 35.6872 31.4336C36.204 32.2098 36.5921 33.1152 36.7213 34.1498C36.9151 35.3134 36.8504 36.6707 36.5275 38.0934C35.7519 41.519 33.4893 45.6559 29.9989 50.1154ZM59.1519 46.7545C58.8289 45.9787 58.5055 45.1387 58.1825 44.4276C57.6653 43.2646 57.148 42.1649 56.6954 41.1304L56.6307 41.0664C52.1711 31.3696 47.3872 21.5444 42.3451 11.8497L42.1515 11.4606C41.6343 10.491 41.117 9.45648 40.6004 8.42242C39.9536 7.25828 39.3069 6.03133 38.2731 4.86695C36.2038 2.28133 33.231 0.859375 30.0632 0.859375C26.8311 0.859375 23.9225 2.28133 21.789 4.73828C20.8199 5.90148 20.1088 7.12961 19.4624 8.29398C18.9451 9.32781 18.4279 10.3623 17.9108 11.3324L17.717 11.7191C12.74 21.4152 7.89176 31.2412 3.43137 40.9373L3.36692 41.0664C2.91411 42.1002 2.39684 43.1987 1.87957 44.3631C1.53376 45.1292 1.21058 45.9053 0.910434 46.6905C0.0697306 49.0816 -0.188551 51.3445 0.134418 53.6711C0.845981 58.5194 4.07801 62.5923 8.53817 64.4017C10.2184 65.1133 11.9638 65.4362 13.7741 65.4362C14.2911 65.4362 14.9375 65.3716 15.4548 65.3064C17.5876 65.0474 19.7854 64.3377 21.9182 63.1089C24.5689 61.6223 27.0901 59.4894 29.934 56.3866C32.7779 59.4894 35.3638 61.6225 37.9494 63.1089C40.0829 64.3377 42.2804 65.0474 44.4135 65.3064C44.9307 65.3716 45.5772 65.4362 46.0942 65.4362C47.9043 65.4362 49.7139 65.1133 51.3301 64.4017C55.855 62.5923 59.0223 58.4549 59.7334 53.6711C60.2507 51.4082 59.9917 49.1469 59.1517 46.7542L59.1519 46.7545Z" fill="#E0565B"/>
</g>
<defs>
<clipPath id="clip0">
<rect width="60" height="64.6875" fill="white" transform="translate(3.8147e-06 0.859375)"/>
</clipPath>
</defs>
</svg>
