<svg width="74" height="61" viewBox="0 0 74 61" fill="none" xmlns="http://www.w3.org/2000/svg">
<g clip-path="url(#clip0)">
<path d="M37.0846 0.859375C17.7494 0.859375 2.60124 25.4594 1.168 46.2368C7.2356 56.7673 21.8674 60.7256 37.0852 60.7256C52.3018 60.7256 66.9345 56.7673 72.999 46.2366C71.5655 25.4594 56.4193 0.859375 37.0849 0.859375" fill="#B6DEFF"/>
<path d="M67.9464 41.2876C67.9464 41.2876 63.676 32.0549 59.3354 26.6684C54.9917 21.2797 49.6872 15.4121 46.5509 15.4121C43.4163 15.4121 34.6534 30.927 30.6334 30.927C26.6126 30.927 24.523 23.8938 19.5796 23.8938C14.6343 23.8938 6.77738 40.8541 6.77738 40.8541L6.24499 43.7293C6.24499 43.7293 8.97457 55.831 37.5306 55.831C66.0878 55.831 68.3701 43.9279 68.3701 43.9279L67.9467 41.2873" fill="#66CC66"/>
<path d="M31.081 37.5482C26.6461 37.5482 24.3726 33.1724 23.1399 30.4713C22.0314 28.0381 21.8396 24.1964 18.6945 24.0888C19.0035 23.9662 19.301 23.8938 19.5799 23.8938C24.5233 23.8938 26.6128 30.9271 30.6337 30.9271C34.6537 30.9271 43.4165 15.4119 46.5511 15.4119C47.1419 15.4119 47.8072 15.6203 48.5292 15.991C47.9951 15.9206 47.3103 15.9696 46.7827 16.4989C45.7695 17.5124 36.5714 37.5482 31.081 37.5482Z" fill="#17AD49"/>
</g>
<defs>
<clipPath id="clip0">
<rect width="72.1127" height="60" fill="white" transform="translate(0.943665 0.859375)"/>
</clipPath>
</defs>
</svg>
