<svg width="60" height="71" viewBox="0 0 60 71" fill="none" xmlns="http://www.w3.org/2000/svg">
<g clip-path="url(#clip0)">
<path d="M18.3724 0.513522C18.029 0.515735 17.6915 0.603453 17.3904 0.768757C16.4018 1.31673 16.0392 2.5868 16.587 3.57469L18.8189 7.60501C13.4414 10.932 9.87821 16.6151 9.87821 23.1014V24.3066C8.84532 23.1183 7.32727 22.3681 5.6311 22.3681C2.52328 22.3681 3.8147e-06 24.8913 3.8147e-06 27.9989V45.3448C3.8147e-06 48.4521 2.52352 50.9756 5.6311 50.9756C7.32727 50.9756 8.84532 50.2252 9.87797 49.0369V51.4667C9.87797 54.7425 12.5585 57.4228 15.8344 57.4228H17.3456V65.1392C17.3456 68.247 19.8691 70.7702 22.9767 70.7702C26.0843 70.7702 28.6076 68.2467 28.6076 65.1392V57.4228H31.2223V65.1392C31.2223 68.247 33.7458 70.7702 36.8534 70.7702C39.9609 70.7702 42.4842 68.2467 42.4842 65.1392V57.4228H43.9957C47.2713 57.4228 49.9519 54.7425 49.9519 51.4667V49.0369C50.9845 50.2252 52.5028 50.9756 54.199 50.9756C57.3066 50.9756 59.8298 48.4521 59.8298 45.3448V27.9989C59.8298 24.8913 57.3066 22.3681 54.199 22.3681C52.5028 22.3681 50.9845 23.1183 49.9519 24.3066V23.3053V23.2479C49.9524 23.187 49.9519 23.1382 49.9519 23.1014C49.9519 16.6163 46.3805 10.9388 41.0048 7.61157L43.2431 3.57469C43.7906 2.5868 43.4283 1.31673 42.4397 0.768757C42.1386 0.603453 41.8011 0.515735 41.4577 0.513522C40.7276 0.506491 40.0111 0.891335 39.6338 1.57219L37.2933 5.80032C35.0048 4.95587 32.5148 4.49298 29.9152 4.49298C27.3178 4.49298 24.8231 4.95094 22.5366 5.79376L20.1963 1.57219C19.8188 0.891335 19.1025 0.50696 18.3724 0.513522Z" fill="white"/>
<path d="M5.63121 23.835C3.31231 23.835 1.46707 25.6802 1.46707 27.9991V45.345C1.46707 47.6639 3.31231 49.5091 5.63121 49.5091C7.95012 49.5091 9.79559 47.6639 9.79559 45.345V27.9991C9.79559 25.6802 7.95012 23.835 5.63121 23.835ZM54.1993 23.835C51.8802 23.835 50.035 25.6802 50.035 27.9991V45.345C50.035 47.6639 51.8802 49.5091 54.1993 49.5091C56.5182 49.5091 58.3635 47.6639 58.3635 45.345V27.9991C58.3635 25.6802 56.5182 23.835 54.1993 23.835Z" fill="#A4C639"/>
<path d="M22.977 43.6292C20.6581 43.6292 18.8126 45.4744 18.8126 47.7935V65.1392C18.8126 67.4581 20.6581 69.3033 22.977 69.3033C25.2959 69.3033 27.1411 67.4581 27.1411 65.1392V47.7935C27.1411 45.4744 25.2959 43.6292 22.977 43.6292ZM36.8536 43.6292C34.5345 43.6292 32.6893 45.4744 32.6893 47.7935V65.1392C32.6893 67.4581 34.5345 69.3033 36.8536 69.3033C39.1726 69.3033 41.0178 67.4581 41.0178 65.1392V47.7935C41.0178 45.4744 39.1726 43.6292 36.8536 43.6292Z" fill="#A4C639"/>
<path d="M18.385 1.98055C18.2865 1.98174 18.1899 2.00804 18.1045 2.05696C17.8075 2.22149 17.71 2.56274 17.8748 2.86039L20.8084 8.15985C15.1647 11.0966 11.3523 16.6773 11.3448 23.0823H48.4851C48.4773 16.6773 44.6652 11.0963 39.0215 8.15985L41.9549 2.86063C42.1199 2.56297 42.0222 2.22149 41.7252 2.05696C41.6398 2.00801 41.5432 1.98171 41.4447 1.98055C41.2338 1.97821 41.0343 2.08368 40.9218 2.28664L37.9499 7.64328C35.519 6.56516 32.7923 5.95977 29.9148 5.95977C27.0374 5.95977 24.3109 6.56493 21.8798 7.64328L18.9079 2.28664C18.8572 2.19262 18.7816 2.11433 18.6895 2.06035C18.5973 2.00636 18.492 1.97876 18.3852 1.98055H18.385ZM11.3448 24.549V51.4669C11.3436 52.0569 11.4588 52.6412 11.684 53.1864C11.9092 53.7317 12.2398 54.2271 12.657 54.6442C13.0741 55.0613 13.5695 55.3919 14.1148 55.6171C14.66 55.8422 15.2444 55.9575 15.8343 55.9562H43.9956C44.5856 55.9575 45.1699 55.8422 45.7152 55.6171C46.2605 55.3919 46.7559 55.0613 47.173 54.6441C47.5902 54.227 47.9208 53.7316 48.146 53.1863C48.3711 52.641 48.4864 52.0566 48.4851 51.4667V24.5492H11.3448V24.549Z" fill="#A4C639"/>
<path d="M21.344 13.1851C20.4963 13.1851 19.7943 13.8868 19.7943 14.7345C19.7943 15.5825 20.4963 16.2842 21.344 16.2842C22.192 16.2842 22.8937 15.5825 22.8937 14.7345C22.8937 13.8868 22.192 13.1851 21.344 13.1851ZM38.4857 13.1851C37.6378 13.1851 36.936 13.8868 36.936 14.7345C36.936 15.5825 37.6378 16.2842 38.4857 16.2842C39.3335 16.2842 40.0354 15.5825 40.0354 14.7345C40.0354 13.8868 39.3335 13.1851 38.4857 13.1851Z" fill="white"/>
</g>
<defs>
<clipPath id="clip0">
<rect width="60" height="70.5469" fill="white" transform="translate(3.8147e-06 0.3125)"/>
</clipPath>
</defs>
</svg>
