<svg width="34" height="28" viewBox="0 0 34 28" fill="none" xmlns="http://www.w3.org/2000/svg">
<path d="M33.6651 3.2185C32.4403 3.74684 31.1074 4.12709 29.7345 4.27518C31.1599 3.42838 32.2273 2.09056 32.7364 0.512741C31.3989 1.30841 29.9336 1.86635 28.4056 2.16181C27.767 1.47907 26.9946 0.935174 26.1366 0.564004C25.2785 0.192834 24.3533 0.00234607 23.4184 0.00441114C19.6359 0.00441114 16.594 3.0704 16.594 6.83284C16.594 7.36119 16.658 7.88953 16.7621 8.39786C11.0984 8.10167 6.04713 5.39591 2.68896 1.25322C2.07706 2.29836 1.7564 3.48838 1.76035 4.69946C1.76035 7.06899 2.96513 9.15835 4.80233 10.3871C3.71964 10.3445 2.66231 10.0469 1.71632 9.51859V9.60264C1.71632 12.9208 4.06185 15.6706 7.18787 16.303C6.60093 16.4554 5.99713 16.5334 5.39071 16.5351C4.94642 16.5351 4.52615 16.4911 4.10187 16.4311C4.96643 19.1368 7.48407 21.1021 10.482 21.1661C8.13649 23.0033 5.19858 24.084 2.00851 24.084C1.43614 24.084 0.907799 24.064 0.359444 24C3.38541 25.9412 6.97574 27.062 10.8422 27.062C23.3944 27.062 30.2628 16.6632 30.2628 7.63736C30.2628 7.34117 30.2628 7.04498 30.2428 6.74879C31.5717 5.77616 32.7364 4.57137 33.6651 3.2185Z" fill="#2091F9"/>
</svg>
