<svg width="34" height="28" viewBox="0 0 34 28" fill="none" xmlns="http://www.w3.org/2000/svg">
<path d="M33.6651 3.39086C32.4403 3.9192 31.1074 4.29945 29.7345 4.44755C31.1599 3.60074 32.2273 2.26293 32.7364 0.685104C31.3989 1.48078 29.9336 2.03872 28.4056 2.33417C27.767 1.65144 26.9946 1.10754 26.1366 0.736367C25.2785 0.365197 24.3533 0.174709 23.4184 0.176774C19.6359 0.176774 16.594 3.24276 16.594 7.00521C16.594 7.53355 16.658 8.06189 16.7621 8.57022C11.0984 8.27403 6.04713 5.56827 2.68896 1.42558C2.07706 2.47072 1.7564 3.66074 1.76035 4.87182C1.76035 7.24136 2.96513 9.33071 4.80233 10.5595C3.71964 10.5169 2.66231 10.2193 1.71632 9.69095V9.775C1.71632 13.0932 4.06185 15.8429 7.18787 16.4754C6.60093 16.6278 5.99713 16.7058 5.39071 16.7075C4.94642 16.7075 4.52615 16.6635 4.10187 16.6034C4.96643 19.3092 7.48407 21.2745 10.482 21.3385C8.13649 23.1757 5.19858 24.2564 2.00851 24.2564C1.43614 24.2564 0.907799 24.2364 0.359444 24.1723C3.38541 26.1136 6.97574 27.2343 10.8422 27.2343C23.3944 27.2343 30.2628 16.8356 30.2628 7.80973C30.2628 7.51354 30.2628 7.21734 30.2428 6.92115C31.5717 5.94852 32.7364 4.74374 33.6651 3.39086Z" fill="white"/>
</svg>
