<svg width="535" height="406" viewBox="0 0 535 406" fill="none" xmlns="http://www.w3.org/2000/svg">
<g clip-path="url(#clip0)">
<path d="M287.82 406C395.519 406 482.827 381.026 482.827 350.219C482.827 319.412 395.519 294.438 287.82 294.438C180.12 294.438 92.8124 319.412 92.8124 350.219C92.8124 381.026 180.12 406 287.82 406Z" fill="#F5F5F5"/>
<path d="M473.355 133.227C473.355 133.227 438.811 167.811 458.312 219.129C477.813 270.447 424.882 355.792 424.882 355.792C424.882 355.792 425.439 355.708 426.503 355.524C497.453 342.984 532.704 261.745 493.252 201.396C478.604 178.961 466.541 152.638 473.355 133.227Z" fill="#2091F9"/>
<path d="M473.355 133.227C473.355 133.227 453.855 175.62 473.355 210.204C492.856 244.788 476.698 341.847 424.882 355.792" stroke="#535461" stroke-width="2" stroke-miterlimit="10"/>
<path d="M534.877 273.108C534.877 273.108 495.458 266.822 491.864 302.192C488.271 337.563 416.09 342.46 416.09 342.46C416.09 342.46 416.558 342.784 417.444 343.364C477.061 382.544 534.053 368.32 525.467 316.293C522.252 296.954 522.508 277.526 534.877 273.108Z" fill="#2091F9"/>
<path opacity="0.2" d="M534.877 273.108C534.877 273.108 495.458 266.822 491.864 302.192C488.271 337.563 416.09 342.46 416.09 342.46C416.09 342.46 416.558 342.784 417.444 343.364C477.061 382.544 534.053 368.32 525.467 316.293C522.252 296.954 522.508 277.526 534.877 273.108Z" fill="#F5F5F5"/>
<path d="M534.877 273.108C534.877 273.108 504.278 279.835 506.791 307.692C509.304 335.549 461.332 368.928 416.068 342.449" stroke="#535461" stroke-width="2" stroke-miterlimit="10"/>
<path opacity="0.2" d="M84.3546 0.0445771C79.8639 -0.111609 75.2617 0.0445769 71.0496 1.61759C59.5887 5.89598 54.1563 19.8914 55.9226 32.0125C57.6888 44.1337 64.9542 54.6595 72.4926 64.304C80.031 73.9485 88.1991 83.4702 92.3332 94.9834C94.3947 100.734 95.3586 107.177 93.2637 112.917C90.0322 121.769 80.2873 126.717 70.9326 127.743C61.5778 128.77 52.184 126.767 42.7958 126.07C38.8566 125.791 34.806 125.758 31.0953 127.052C27.0225 128.463 23.6293 131.341 20.5092 134.342C8.33518 146.112 -1.40961 162.177 0.167162 179.045C1.95009 198.167 17.8515 213.283 35.2685 221.388C41.0351 224.077 47.1361 226.252 52.2119 230.09C65.5838 240.208 68.5869 259.168 67.2553 275.908C65.9237 292.648 61.3883 309.404 63.9123 325.999C66.882 345.299 80.0255 362.731 97.7544 370.875C113.55 378.126 133.318 377.674 147.342 367.416C154.178 362.396 159.349 355.474 163.845 348.295C170.632 337.464 176.138 325.881 180.254 313.778C182.209 308.027 184.048 301.841 188.611 297.841C191.397 295.381 195.007 294.003 198.579 292.932C209.343 289.708 220.682 288.821 231.546 285.954C242.411 283.087 253.342 277.743 259.248 268.188C267.606 254.628 263.706 237.286 263.745 221.332C263.812 184.986 285.535 152.443 293.553 117.022C296.172 105.442 297.147 92.6294 291.297 82.3044C287.318 75.2593 280.616 70.239 273.568 66.3344C258.078 57.7218 240.472 53.8897 223.15 50.158C199.075 44.9815 169.84 44.3122 151.181 27.5668C133.274 11.5019 108.775 0.0445771 84.3546 0.0445771Z" fill="#2091F9"/>
<g opacity="0.5">
<path opacity="0.5" d="M171.685 140.729C171.683 131.968 170.313 123.262 167.623 114.925L160.937 94.169C160.937 93.8231 160.937 93.4829 160.937 93.1426C161.143 79.8389 150.785 73.201 146.796 73.9206C142.712 74.6569 131.379 68.9673 131.379 68.9673V69.1234C130.602 68.2279 129.902 67.2689 129.284 66.2563C131.242 64.8286 132.896 63.0234 134.147 60.9469C135.398 58.8704 136.222 56.5644 136.57 54.1645C136.919 51.7646 136.784 49.3192 136.175 46.972C135.566 44.6249 134.494 42.4233 133.023 40.4968C134.248 39.5754 135.182 38.3206 135.714 36.8822C136.639 34.2772 135.931 31.3041 134.427 28.9836C133.787 28.0149 133.04 27.1223 132.198 26.3229C130.924 25.059 129.532 23.9196 128.042 22.9203C124.326 20.3432 120.242 18.1287 115.784 17.3422C115.013 17.1599 114.21 17.1599 113.439 17.3422C112.769 17.6126 112.132 17.9569 111.539 18.3686C108.485 20.1089 104.686 19.3559 101.164 19.1718C97.643 18.9877 93.364 19.975 92.2497 23.2828C91.9042 24.3036 91.9265 25.4081 91.6925 26.4568C91.1353 29.0227 89.1574 31.014 87.6308 33.1504C86.1041 35.2868 84.9619 38.1707 86.2323 40.4912C86.6669 41.2721 87.3466 41.9917 87.3466 42.8842C87.3466 43.5257 86.9677 44.1002 86.7894 44.7138C86.405 46.1083 87.1293 47.5028 88.2436 48.5125C88.7238 49.0307 89.2892 49.4628 89.9151 49.7898C91.6814 50.6935 93.715 50.9724 95.5146 51.8091C96.4129 52.2315 97.237 52.7966 97.955 53.4825C98.8345 54.4042 99.5219 55.492 99.9772 56.6824C100.433 57.8728 100.647 59.142 100.607 60.4161L100.98 60.4551C100.98 60.5667 100.98 60.6727 100.98 60.7842C101.37 60.8288 101.783 60.8679 102.189 60.8846C102.775 61.8302 103.444 62.7208 104.19 63.5454C104.063 64.0214 103.92 64.5048 103.761 64.9957C102.451 65.9049 91.7426 73.0448 79.563 71.3268C66.5644 69.4916 59.1318 126.388 59.1318 126.388C58.65 129.642 58.4153 132.927 58.4298 136.216C58.3741 144.584 60.1291 155.533 69.9074 153.921L75.1057 152.209V180.35C75.1057 180.35 75.8467 188.059 73.2504 193.18C70.654 198.3 81.424 196.482 81.424 196.482C81.424 196.482 81.8363 196.912 82.594 197.642L82.3544 198.317L82.672 198.641C81.2555 203.489 79.3456 208.179 76.9722 212.636L77.2787 212.792C77.0837 213.166 76.9722 213.35 76.9722 213.35C76.9722 213.35 80.9726 215.397 86.4774 218.036C90.9013 233.007 100.585 267.681 97.3978 274.285L97.487 274.475C98.0832 275.713 101.415 283.015 100.741 289.703C100.134 295.682 108.402 322.853 111.489 332.721L110.029 333.016L115.227 351.736L114.113 363.852C114.113 363.852 107.8 380.737 122.654 377.435C137.508 374.132 133.424 360.55 133.424 360.55L133.797 333.016C133.797 333.016 132.365 332.219 130.599 331.455C129.385 328.169 126.738 320.404 126.738 315.033C126.738 308.06 121.907 277.955 121.907 277.955V277.894V277.777V277.743L121.88 277.342V277.275C121.88 276.901 121.818 276.388 121.774 275.763V275.73C121.217 267.591 119.545 239.941 120.765 225.527C121.838 224.794 122.955 224.128 124.108 223.53C127.724 232.678 137.046 257.395 136.449 267.764C135.708 280.594 136.266 270.52 136.449 268.88C136.505 268.372 136.544 268.986 136.561 270.364C136.561 270.615 136.561 270.893 136.561 271.189C136.561 271.485 136.561 271.814 136.561 272.154C136.561 272.494 136.561 272.863 136.561 273.27C136.561 273.463 136.561 273.66 136.561 273.861C136.561 274.263 136.561 274.683 136.561 275.122C136.561 275.341 136.561 275.564 136.561 275.791C136.561 276.907 136.561 278.145 136.522 279.434C136.522 279.69 136.522 279.95 136.522 280.214C136.522 281.001 136.522 281.804 136.483 282.619C136.483 283.734 136.438 284.816 136.416 285.938C136.36 288.448 136.288 290.986 136.199 293.362C136.199 293.626 136.189 293.888 136.171 294.148C136.152 294.669 136.132 295.179 136.11 295.677C136.087 296.175 136.065 296.662 136.043 297.138C136.02 297.611 135.996 298.07 135.97 298.516C135.942 299.04 135.909 299.542 135.881 300.022L133.864 299.732L133.435 304.373C132.759 311.741 133.71 319.168 136.221 326.128C136.912 328.035 137.447 329.614 137.564 330.177C137.937 332.012 137.564 345.238 137.564 345.238C137.564 345.238 139.792 362.491 150.195 359.183C154.875 357.694 157.148 353.164 158.235 348.624C159.44 343.36 158.991 337.852 156.948 332.855C155.471 329.14 153.961 323.93 155.025 319.902C156.881 312.93 156.881 303.018 156.881 303.018L155.733 302.856C156.019 302.311 156.277 301.753 156.507 301.182C156.507 301.182 156.134 275.852 159.477 272.55C161.316 270.732 161.149 266.364 160.591 262.794C159.795 257.628 159.608 252.386 160.034 247.176C160.263 244.492 160.591 242.155 160.976 241.324C161.956 239.383 162.937 219.815 158.597 210.399L159.488 210.12L159.349 209.429L159.488 209.384C160.143 211.134 160.887 212.848 161.717 214.521C161.936 214.694 162.188 214.819 162.458 214.89C174.487 212.776 174.972 201.536 174.303 195.4C174.81 195.645 175.089 195.801 175.089 195.801L176.203 179.625C177.345 177.042 177.769 173.746 177.741 170.181C177.791 157.441 171.685 140.729 171.685 140.729ZM158.424 186.709C157.599 179.664 156.457 173.032 156.457 173.032L150.886 153.207V145.989L159.722 179.011L158.424 186.709Z" fill="url(#paint0_linear)"/>
</g>
<path d="M133.374 294.996L132.962 299.531C132.311 306.737 133.233 313.998 135.664 320.812C136.327 322.68 136.845 324.22 136.956 324.772C137.313 326.568 136.956 339.481 136.956 339.481C136.956 339.481 139.107 356.344 149.142 353.114C153.655 351.664 155.828 347.229 156.897 342.795C158.057 337.652 157.622 332.277 155.649 327.388C154.223 323.757 152.763 318.653 153.794 314.732C155.588 307.915 155.588 298.232 155.588 298.232L133.374 294.996Z" fill="#5A5773"/>
<path d="M122.626 217.149C122.626 217.149 136.6 251.231 135.881 263.781C135.162 276.332 135.703 266.47 135.881 264.858C136.199 261.985 135.881 296.095 134.806 300C134.806 300 149.498 310.76 155.231 296.413C155.231 296.413 154.875 271.663 158.095 268.434C159.867 266.66 159.694 262.387 159.171 258.901C158.398 253.858 158.211 248.742 158.613 243.656C158.831 241.034 159.132 238.725 159.522 237.938C160.597 235.785 161.672 211.392 155.22 204.576L122.626 217.149Z" fill="#605D82"/>
<path opacity="0.1" d="M136.6 300.017C137.675 296.073 137.993 261.985 137.675 264.875C137.497 266.487 136.957 276.354 137.675 263.798C138.394 251.242 124.42 217.165 124.42 217.165L155.683 205.128C155.538 204.944 155.388 204.771 155.237 204.609L122.632 217.165C122.632 217.165 136.606 251.248 135.887 263.798C135.168 276.349 135.708 266.487 135.887 264.875C136.204 262.002 135.887 296.112 134.811 300.017C134.811 300.017 140.678 304.312 146.445 303.854C141.314 303.469 136.6 300.017 136.6 300.017Z" fill="black"/>
<path d="M110.441 327.639L115.456 345.935L114.38 357.772C114.38 357.772 108.29 374.272 122.621 371.042C136.951 367.812 133.012 354.542 133.012 354.542L133.368 327.639C133.368 327.639 127.635 324.409 125.128 324.772C122.621 325.135 110.441 327.639 110.441 327.639Z" fill="#5A5773"/>
<path d="M85.7197 208.542C85.7197 208.542 102.201 261.991 98.2615 270.241C98.2615 270.241 102.201 278.134 101.487 285.302C100.774 292.47 112.954 330.858 112.954 330.858L130.872 327.628C130.872 327.628 126.571 316.868 126.571 310.052C126.571 303.235 121.913 273.794 121.913 273.794C121.913 273.794 117.974 219.982 122.632 214.243L85.7197 208.542Z" fill="#605D82"/>
<g opacity="0.1">
<path opacity="0.1" d="M121.239 218.616C118.269 230.798 121.551 275.629 121.551 275.629C121.551 275.629 126.209 305.043 126.209 311.887C126.209 317.091 128.71 324.588 129.897 327.846L130.867 327.673C130.867 327.673 126.565 316.913 126.565 310.096C126.565 303.28 121.908 273.839 121.908 273.839C121.908 273.839 118.91 232.868 121.239 218.616Z" fill="black"/>
<path opacity="0.1" d="M98.2615 270.241L98.3506 270.425C98.3785 270.241 98.4063 270.046 98.4231 269.867C98.3756 269.994 98.3217 270.119 98.2615 270.241Z" fill="black"/>
<path opacity="0.1" d="M121.818 216.005C121.981 215.387 122.255 214.802 122.626 214.282L85.7197 208.542C85.7197 208.542 85.937 209.239 86.3103 210.483L121.818 216.005Z" fill="black"/>
</g>
<path d="M171.712 189.169C171.712 189.169 177.089 209.25 160.965 212.129C160.703 212.06 160.458 211.939 160.246 211.772C160.246 211.772 150.93 193.476 158.095 186.302L171.712 189.169Z" fill="#FAC3CA"/>
<path d="M105.783 55.7361C105.783 55.7361 106.858 70.7969 95.0354 77.9759C83.2124 85.1548 120.108 104.879 120.108 104.879L139.458 74.0266C139.458 74.0266 131.223 75.092 126.209 60.7564L105.783 55.7361Z" fill="#FAC3CA"/>
<path opacity="0.1" d="M97.8993 79.0413C97.8993 79.0413 116.174 117.067 132.655 81.1944L158.095 207.46C158.095 207.46 118.676 219.659 118.325 225.399C117.974 231.139 78.5601 210.695 78.5601 210.695C78.5601 210.695 87.1572 194.909 85.0121 185.225C82.867 175.542 97.8993 79.0413 97.8993 79.0413Z" fill="black"/>
<path d="M97.8993 78.3217C97.8993 78.3217 116.174 116.347 132.655 80.4748L158.095 206.746C158.095 206.746 118.676 218.945 118.325 224.685C117.974 230.425 78.5601 209.975 78.5601 209.975C78.5601 209.975 87.1572 194.189 85.0121 184.506C82.867 174.822 97.8993 78.3217 97.8993 78.3217Z" fill="#E1E7EF"/>
<path d="M115.818 337.685C115.818 337.685 111.16 327.282 121.907 327.282C132.655 327.282 130.867 336.609 130.867 336.609L115.818 337.685Z" fill="#5A5773"/>
<path d="M140.182 310.777C140.182 310.777 135.881 299.654 146.634 299.297C157.388 298.94 152.011 309.338 152.011 309.338L140.182 310.777Z" fill="#5A5773"/>
<path opacity="0.1" d="M131.045 70.239C131.045 70.239 141.971 75.8171 145.916 75.0808C149.86 74.3445 160.246 81.1776 159.533 94.8104L166.007 115.148C168.597 123.303 169.912 131.809 169.907 140.367C169.907 140.367 179.223 166.193 174.208 177.673L173.133 193.459C173.133 193.459 164.893 188.795 156.29 190.229L158.457 177.338L148.763 140.74L132.638 101.638L131.045 70.239Z" fill="black"/>
<path d="M131.045 69.5306C131.045 69.5306 141.971 75.1087 145.916 74.3724C149.86 73.6361 160.246 80.4692 159.533 94.102L166.007 114.44C168.597 122.595 169.912 131.101 169.907 139.658C169.907 139.658 179.223 165.485 174.208 176.964L173.133 192.75C173.133 192.75 164.893 188.087 156.29 189.521L158.441 176.607L148.763 140.021L132.655 100.918L131.045 69.5306Z" fill="#67647E"/>
<path opacity="0.1" d="M149.142 113.118V153.654L154.518 173.026C154.518 173.026 158.101 194.189 157.026 200.649C155.95 207.108 138.751 208.542 134.093 203.159C129.435 197.776 131.942 151.841 131.942 151.841L131.045 84.597L131.764 82.4438L149.142 113.118Z" fill="black"/>
<path d="M149.877 111.327V151.863L155.254 171.236C155.254 171.236 158.836 192.399 157.761 198.858C156.686 205.318 139.486 206.751 134.828 201.368C130.17 195.986 132.677 150.05 132.677 150.05L131.78 82.7898L149.877 111.327Z" fill="#67647E"/>
<path opacity="0.1" d="M77.6575 145.047L89.124 180.746L83.7473 195.991C83.7473 195.991 109.187 222.894 125.312 209.981C125.312 209.981 127.106 155.093 123.518 142.18C119.93 129.266 102.735 85.841 102.735 85.841L99.1752 74.3781L80.1871 85.1382L77.6575 145.047Z" fill="black"/>
<path d="M76.7605 143.25V178.392C76.7605 178.392 77.4792 185.928 74.9664 190.948C72.4536 195.969 82.8503 194.178 82.8503 194.178C82.8503 194.178 108.29 221.081 124.415 208.168C124.415 208.168 126.209 153.28 122.621 140.367C119.033 127.453 101.838 84.028 101.838 84.028L98.2559 72.5483L79.2677 83.3084L76.7605 143.25Z" fill="#67647E"/>
<path opacity="0.1" d="M104.53 66.3065C104.53 66.3065 93.6035 74.378 81.0618 72.5819C68.52 70.7857 61.3549 126.394 61.3549 126.394C61.3549 126.394 56.697 155.093 71.746 152.583L105.07 141.46C105.07 141.46 97.9048 133.924 98.9802 124.24L82.8503 130.694L83.5746 99.8475L104.53 66.3065Z" fill="black"/>
<path opacity="0.1" d="M62.0681 125.674C62.0681 125.674 57.4102 154.373 72.4592 151.863L105.783 140.74C105.783 140.74 98.618 133.21 99.6934 123.521L83.5746 129.98L62.0681 125.674Z" fill="black"/>
<path d="M98.9022 127.303C98.9022 127.303 110.084 112.582 118.319 119.65C126.554 126.717 101.855 139.669 101.855 139.669L98.9022 127.303Z" fill="#FAC3CA"/>
<path d="M104.53 65.587C104.53 65.587 93.6035 73.6585 81.0618 71.8624C68.52 70.0662 61.3549 125.674 61.3549 125.674C61.3549 125.674 56.697 154.373 71.746 151.863L105.07 140.74C105.07 140.74 97.9048 133.204 98.9802 123.521L82.8503 129.98L83.5746 99.128L101.85 84.0672L104.53 65.587Z" fill="#67647E"/>
<path opacity="0.1" d="M126.565 61.4592L106.14 56.439C106.14 56.439 107.204 57.6438 105.961 62.3573C109.249 66.1337 113.288 71.1483 118.681 71.1483C122.541 71.1556 126.299 69.9087 129.39 67.5951C128.237 65.6545 127.29 63.5979 126.565 61.4592Z" fill="black"/>
<path d="M118.325 70.4343C128.221 70.4343 136.243 62.4027 136.243 52.4952C136.243 42.5878 128.221 34.5562 118.325 34.5562C108.429 34.5562 100.406 42.5878 100.406 52.4952C100.406 62.4027 108.429 70.4343 118.325 70.4343Z" fill="#FAC3CA"/>
<path opacity="0.1" d="M125.117 44.7082C129.273 43.9998 133.842 42.1535 135.235 38.1707C136.126 35.6215 135.447 32.7209 133.992 30.4507C132.538 28.1804 130.399 26.4345 128.192 24.8726C124.61 22.3513 120.659 20.187 116.347 19.4284C115.603 19.2504 114.828 19.2504 114.085 19.4284C113.438 19.6934 112.823 20.0302 112.252 20.4325C109.304 22.1338 105.638 21.3975 102.223 21.219C98.8075 21.0405 94.7123 22.0055 93.637 25.2352C93.3027 26.2337 93.325 27.3102 93.0798 28.3366C92.5227 30.8467 90.6339 32.799 89.1797 34.8908C87.7255 36.9826 86.6056 39.8107 87.8314 42.0642C88.2492 42.8284 88.9457 43.5312 88.9457 44.4014C88.8382 45.0199 88.6509 45.6218 88.3885 46.192C87.8815 48.0439 89.358 49.9126 91.0629 50.7939C92.7678 51.6752 94.729 51.9486 96.4674 52.7685C98.0945 53.5724 99.4567 54.8271 100.392 56.3836C101.327 57.9401 101.797 59.7327 101.744 61.5484C103.326 61.7325 105.17 61.8273 106.24 60.6448C106.719 60.1149 106.953 59.4065 107.388 58.8431C107.945 58.1068 108.814 57.6717 109.527 57.0804C113.277 53.9957 110.614 49.7341 112.737 46.4095C113.851 44.6971 115.623 45.2214 117.417 45.2493C119.995 45.3097 122.573 45.1285 125.117 44.7082Z" fill="black"/>
<path d="M124.76 44.3513C128.917 43.6429 133.485 41.7965 134.878 37.8138C135.77 35.2646 135.09 32.364 133.636 30.0937C132.182 27.8235 130.042 26.0775 127.836 24.5157C124.253 21.9944 120.303 19.8301 115.99 19.0715C115.247 18.8935 114.472 18.8935 113.728 19.0715C113.082 19.3364 112.467 19.6732 111.895 20.0755C108.948 21.7768 105.282 21.0405 101.866 20.862C98.4509 20.6835 94.3558 21.6485 93.2804 24.8782C92.9461 25.8767 92.9684 26.9533 92.7233 27.9797C92.1661 30.4898 90.2773 32.4421 88.8231 34.5339C87.3689 36.6257 86.249 39.4538 87.4748 41.7073C87.8927 42.4715 88.5891 43.1743 88.5891 44.0445C88.4816 44.663 88.2943 45.2649 88.0319 45.8351C87.5249 47.687 89.0014 49.5556 90.7063 50.437C92.4113 51.3183 94.3725 51.5916 96.1108 52.4116C97.7445 53.2146 99.1126 54.4718 100.051 56.0329C100.99 57.5939 101.46 59.3926 101.404 61.2138C102.986 61.3979 104.83 61.4927 105.9 60.3102C106.379 59.7802 106.613 59.0718 107.048 58.5084C107.605 57.7721 108.474 57.337 109.187 56.7458C112.937 53.6611 110.274 49.3995 112.397 46.0749C113.511 44.3625 115.283 44.8868 117.077 44.9147C119.65 44.9667 122.222 44.778 124.76 44.3513Z" fill="#4A4347"/>
<path opacity="0.1" d="M146.451 104.689C146.451 104.689 150.39 125.138 148.601 133.031C147.508 137.623 147.67 142.424 149.069 146.932" fill="black"/>
<path opacity="0.1" d="M82.7723 113.296C82.7723 113.296 81.0562 126.929 83.9145 129.796L82.7723 113.296Z" fill="black"/>
<path d="M182.822 281.302C183.044 281.302 183.256 281.214 183.413 281.057C183.57 280.9 183.658 280.687 183.658 280.465C183.658 280.244 183.57 280.031 183.413 279.874C183.256 279.717 183.044 279.629 182.822 279.629C182.601 279.629 182.388 279.717 182.231 279.874C182.074 280.031 181.986 280.244 181.986 280.465C181.986 280.687 182.074 280.9 182.231 281.057C182.388 281.214 182.601 281.302 182.822 281.302Z" fill="black"/>
<g opacity="0.5">
<path opacity="0.5" d="M440.16 183.825V183.362L288.143 66.3345C288.047 66.2634 287.931 66.225 287.811 66.225C287.692 66.225 287.576 66.2634 287.48 66.3345L135.458 183.362V364.761H135.747V365.051H440.455V183.652L440.16 183.825Z" fill="url(#paint1_linear)"/>
</g>
<path d="M434.911 359.702H140.728V184.551L287.82 71.3157L434.911 184.551V359.702Z" fill="white"/>
<path d="M424.325 349.321H151.315V186.776L287.82 81.6909L424.325 186.776V349.321Z" fill="#E0E0E0"/>
<path d="M334.13 79.2622L167.594 122.971L223.121 335.024L389.657 291.315L334.13 79.2622Z" fill="#2091F9"/>
<path d="M374.737 111.478H202.574V330.696H374.737V111.478Z" fill="#F5F5F5"/>
<path opacity="0.05" d="M142.121 184.829L289.213 272.405L142.121 359.981V184.829Z" fill="black"/>
<path d="M141.007 184.829L288.098 272.405L141.007 359.981V184.829Z" fill="white"/>
<path opacity="0.05" d="M434.075 184.829L286.984 272.405L434.075 359.981V184.829Z" fill="black"/>
<path d="M435.19 184.829L288.098 272.405L435.19 359.981V184.829Z" fill="white"/>
<path opacity="0.05" d="M141.007 357.192L288.098 242.284L435.19 357.192H141.007Z" fill="black"/>
<path d="M141.007 359.981L288.098 245.073L435.19 359.981H141.007Z" fill="white"/>
<path d="M170.899 373.285C170.899 373.285 163.511 348.183 172.286 329.698C176.015 321.97 177.139 313.241 175.49 304.819C174.677 300.828 173.5 296.92 171.974 293.144" stroke="#535461" stroke-width="2" stroke-miterlimit="10"/>
<path d="M177.429 281.464C177.429 284.543 171.857 293.462 171.857 293.462C171.857 293.462 166.286 284.537 166.286 281.464C166.286 279.985 166.873 278.566 167.917 277.52C168.962 276.474 170.38 275.886 171.857 275.886C173.335 275.886 174.752 276.474 175.797 277.52C176.842 278.566 177.429 279.985 177.429 281.464Z" fill="#6C63FF"/>
<path d="M186.65 298.511C184.978 301.093 175.462 305.556 175.462 305.556C175.462 305.556 175.635 295.035 177.306 292.453C178.14 291.285 179.391 290.483 180.799 290.215C182.208 289.947 183.665 290.232 184.869 291.013C186.072 291.793 186.929 293.008 187.261 294.404C187.593 295.801 187.374 297.271 186.65 298.511Z" fill="#6C63FF"/>
<path d="M186.226 327.634C183.48 329.017 173.016 328.063 173.016 328.063C173.016 328.063 178.471 319.071 181.212 317.688C181.868 317.32 182.592 317.09 183.339 317.01C184.087 316.929 184.843 317.002 185.562 317.222C186.28 317.442 186.947 317.805 187.522 318.29C188.097 318.775 188.568 319.372 188.907 320.044C189.245 320.716 189.445 321.449 189.493 322.2C189.541 322.951 189.436 323.704 189.186 324.414C188.935 325.124 188.544 325.775 188.036 326.33C187.527 326.884 186.912 327.329 186.226 327.639V327.634Z" fill="#6C63FF"/>
<path d="M180.967 349.606C178.493 351.435 168.018 352.261 168.018 352.261C168.018 352.261 171.874 342.477 174.348 340.647C175.538 339.852 176.988 339.546 178.398 339.792C179.807 340.039 181.068 340.818 181.919 341.97C182.77 343.122 183.146 344.557 182.969 345.979C182.791 347.4 182.075 348.699 180.967 349.606Z" fill="#6C63FF"/>
<path d="M163.756 306.147C165.985 308.289 176.231 310.514 176.231 310.514C176.231 310.514 173.718 300.301 171.512 298.159C170.439 297.209 169.041 296.71 167.61 296.765C166.179 296.819 164.823 297.423 163.825 298.452C162.827 299.481 162.263 300.854 162.25 302.288C162.238 303.722 162.777 305.106 163.756 306.152V306.147Z" fill="#6C63FF"/>
<path d="M157.928 331.923C160.675 333.307 171.139 332.353 171.139 332.353C171.139 332.353 165.684 323.361 162.943 321.977C161.634 321.385 160.147 321.322 158.793 321.801C157.438 322.28 156.321 323.264 155.674 324.548C155.027 325.832 154.9 327.317 155.32 328.692C155.74 330.067 156.675 331.227 157.928 331.929V331.923Z" fill="#6C63FF"/>
<path d="M155.699 357.75C158.173 359.579 168.648 360.405 168.648 360.405C168.648 360.405 164.792 350.621 162.319 348.791C161.734 348.313 161.06 347.959 160.335 347.75C159.61 347.54 158.85 347.481 158.101 347.574C157.353 347.668 156.631 347.913 155.979 348.294C155.328 348.675 154.761 349.185 154.312 349.792C153.864 350.4 153.543 351.092 153.369 351.827C153.196 352.562 153.173 353.324 153.303 354.069C153.433 354.813 153.712 355.523 154.124 356.155C154.536 356.788 155.072 357.331 155.699 357.75Z" fill="#6C63FF"/>
<path opacity="0.5" d="M281.691 121.518H212.603V127.096H281.691V121.518Z" fill="#6C63FF"/>
<path opacity="0.5" d="M361.923 143.831H212.603V149.409H361.923V143.831Z" fill="#6C63FF"/>
<path opacity="0.5" d="M361.923 158.334H212.603V163.912H361.923V158.334Z" fill="#6C63FF"/>
<path opacity="0.4" d="M361.923 172.837H212.603V178.415H361.923V172.837Z" fill="#6C63FF"/>
<path opacity="0.4" d="M361.923 187.34H212.603V192.918H361.923V187.34Z" fill="#6C63FF"/>
<path opacity="0.3" d="M297.849 201.843H212.603V207.421H297.849V201.843Z" fill="#6C63FF"/>
<path opacity="0.3" d="M329.05 216.346H212.603V221.924H329.05V216.346Z" fill="#6C63FF"/>
</g>
<defs>
<linearGradient id="paint0_linear" x1="58.4354" y1="197.564" x2="177.68" y2="197.564" gradientUnits="userSpaceOnUse">
<stop stop-color="#808080" stop-opacity="0.25"/>
<stop offset="0.54" stop-color="#808080" stop-opacity="0.12"/>
<stop offset="1" stop-color="#808080" stop-opacity="0.1"/>
</linearGradient>
<linearGradient id="paint1_linear" x1="194367" y1="221362" x2="194367" y2="61265.9" gradientUnits="userSpaceOnUse">
<stop stop-color="#808080" stop-opacity="0.25"/>
<stop offset="0.54" stop-color="#808080" stop-opacity="0.12"/>
<stop offset="1" stop-color="#808080" stop-opacity="0.1"/>
</linearGradient>
<clipPath id="clip0">
<rect width="535" height="406" fill="white"/>
</clipPath>
</defs>
</svg>
